<svg width="239" height="239" viewBox="0 0 239 239" fill="none" xmlns="http://www.w3.org/2000/svg">
<rect width="239" height="239" rx="64" fill="black"/>
<path d="M41.148 72.728H56.268C58.7 72.728 60.684 73.08 62.22 73.784C63.756 74.488 64.94 75.368 65.772 76.424C66.604 77.48 67.164 78.632 67.452 79.88C67.772 81.128 67.932 82.28 67.932 83.336C67.932 84.392 67.772 85.544 67.452 86.792C67.164 88.008 66.604 89.144 65.772 90.2C64.94 91.256 63.756 92.136 62.22 92.84C60.684 93.512 58.7 93.848 56.268 93.848H47.148V107H41.148V72.728ZM47.148 88.952H55.932C56.604 88.952 57.292 88.856 57.996 88.664C58.7 88.472 59.34 88.168 59.916 87.752C60.524 87.304 61.004 86.728 61.356 86.024C61.74 85.288 61.932 84.376 61.932 83.288C61.932 82.168 61.772 81.24 61.452 80.504C61.132 79.768 60.7 79.192 60.156 78.776C59.612 78.328 58.988 78.024 58.284 77.864C57.58 77.704 56.828 77.624 56.028 77.624H47.148V88.952ZM73.3556 82.184H78.4916V86.984H78.5876C78.7476 86.312 79.0516 85.656 79.4996 85.016C79.9796 84.376 80.5396 83.8 81.1796 83.288C81.8516 82.744 82.5876 82.312 83.3876 81.992C84.1876 81.672 85.0036 81.512 85.8356 81.512C86.4756 81.512 86.9076 81.528 87.1316 81.56C87.3876 81.592 87.6436 81.624 87.8996 81.656V86.936C87.5156 86.872 87.1156 86.824 86.6996 86.792C86.3156 86.728 85.9316 86.696 85.5476 86.696C84.6196 86.696 83.7396 86.888 82.9076 87.272C82.1076 87.624 81.4036 88.168 80.7956 88.904C80.1876 89.608 79.7076 90.488 79.3556 91.544C79.0036 92.6 78.8276 93.816 78.8276 95.192V107H73.3556V82.184ZM101.723 107.672C99.7389 107.672 97.9629 107.352 96.3949 106.712C94.8589 106.04 93.5469 105.128 92.4589 103.976C91.4029 102.824 90.5869 101.448 90.0109 99.848C89.4669 98.248 89.1949 96.488 89.1949 94.568C89.1949 92.68 89.4669 90.936 90.0109 89.336C90.5869 87.736 91.4029 86.36 92.4589 85.208C93.5469 84.056 94.8589 83.16 96.3949 82.52C97.9629 81.848 99.7389 81.512 101.723 81.512C103.707 81.512 105.467 81.848 107.003 82.52C108.571 83.16 109.883 84.056 110.939 85.208C112.027 86.36 112.843 87.736 113.387 89.336C113.963 90.936 114.251 92.68 114.251 94.568C114.251 96.488 113.963 98.248 113.387 99.848C112.843 101.448 112.027 102.824 110.939 103.976C109.883 105.128 108.571 106.04 107.003 106.712C105.467 107.352 103.707 107.672 101.723 107.672ZM101.723 103.352C102.939 103.352 103.995 103.096 104.891 102.584C105.787 102.072 106.523 101.4 107.099 100.568C107.675 99.736 108.091 98.808 108.347 97.784C108.635 96.728 108.779 95.656 108.779 94.568C108.779 93.512 108.635 92.456 108.347 91.4C108.091 90.344 107.675 89.416 107.099 88.616C106.523 87.784 105.787 87.112 104.891 86.6C103.995 86.088 102.939 85.832 101.723 85.832C100.507 85.832 99.4509 86.088 98.5549 86.6C97.6589 87.112 96.9229 87.784 96.3469 88.616C95.7709 89.416 95.3389 90.344 95.0509 91.4C94.7949 92.456 94.6669 93.512 94.6669 94.568C94.6669 95.656 94.7949 96.728 95.0509 97.784C95.3389 98.808 95.7709 99.736 96.3469 100.568C96.9229 101.4 97.6589 102.072 98.5549 102.584C99.4509 103.096 100.507 103.352 101.723 103.352ZM159.439 91.352H194.959V96.536H159.439V91.352ZM41.004 131.728H47.004V145.36H62.604V131.728H68.604V166H62.604V150.544H47.004V166H41.004V131.728ZM97.7726 166H92.3966V162.544H92.3006C91.6286 163.792 90.6206 164.8 89.2766 165.568C87.9646 166.304 86.6206 166.672 85.2446 166.672C81.9806 166.672 79.6126 165.872 78.1406 164.272C76.7006 162.64 75.9806 160.192 75.9806 156.928V141.184H81.4526V156.4C81.4526 158.576 81.8686 160.112 82.7006 161.008C83.5326 161.904 84.7006 162.352 86.2046 162.352C87.3566 162.352 88.3166 162.176 89.0846 161.824C89.8526 161.472 90.4766 161.008 90.9566 160.432C91.4366 159.824 91.7726 159.104 91.9646 158.272C92.1886 157.44 92.3006 156.544 92.3006 155.584V141.184H97.7726V166ZM104.503 141.184H109.687V144.64H109.831C110.247 144.032 110.695 143.472 111.175 142.96C111.655 142.448 112.183 142.016 112.759 141.664C113.367 141.312 114.055 141.04 114.823 140.848C115.591 140.624 116.471 140.512 117.463 140.512C118.967 140.512 120.359 140.848 121.639 141.52C122.951 142.192 123.879 143.232 124.423 144.64C125.351 143.36 126.423 142.352 127.639 141.616C128.855 140.88 130.375 140.512 132.199 140.512C134.823 140.512 136.855 141.152 138.295 142.432C139.767 143.712 140.503 145.856 140.503 148.864V166H135.031V151.504C135.031 150.512 134.999 149.616 134.935 148.816C134.871 147.984 134.679 147.28 134.359 146.704C134.071 146.096 133.623 145.632 133.015 145.312C132.407 144.992 131.575 144.832 130.519 144.832C128.663 144.832 127.319 145.408 126.487 146.56C125.655 147.712 125.239 149.344 125.239 151.456V166H119.767V150.064C119.767 148.336 119.447 147.04 118.807 146.176C118.199 145.28 117.063 144.832 115.399 144.832C114.695 144.832 114.007 144.976 113.335 145.264C112.695 145.552 112.119 145.968 111.607 146.512C111.127 147.056 110.727 147.728 110.407 148.528C110.119 149.328 109.975 150.24 109.975 151.264V166H104.503V141.184ZM168.013 160.48C168.013 161.152 168.093 161.632 168.253 161.92C168.445 162.208 168.797 162.352 169.309 162.352C169.469 162.352 169.661 162.352 169.885 162.352C170.109 162.352 170.365 162.32 170.653 162.256V166.048C170.461 166.112 170.205 166.176 169.885 166.24C169.597 166.336 169.293 166.416 168.973 166.48C168.653 166.544 168.333 166.592 168.013 166.624C167.693 166.656 167.421 166.672 167.197 166.672C166.077 166.672 165.149 166.448 164.413 166C163.677 165.552 163.197 164.768 162.973 163.648C161.885 164.704 160.541 165.472 158.941 165.952C157.373 166.432 155.853 166.672 154.381 166.672C153.261 166.672 152.189 166.512 151.165 166.192C150.141 165.904 149.229 165.472 148.429 164.896C147.661 164.288 147.037 163.536 146.557 162.64C146.109 161.712 145.885 160.64 145.885 159.424C145.885 157.888 146.157 156.64 146.701 155.68C147.277 154.72 148.013 153.968 148.909 153.424C149.837 152.88 150.861 152.496 151.981 152.272C153.133 152.016 154.285 151.824 155.437 151.696C156.429 151.504 157.373 151.376 158.269 151.312C159.165 151.216 159.949 151.072 160.621 150.88C161.325 150.688 161.869 150.4 162.253 150.016C162.669 149.6 162.877 148.992 162.877 148.192C162.877 147.488 162.701 146.912 162.349 146.464C162.029 146.016 161.613 145.68 161.101 145.456C160.621 145.2 160.077 145.04 159.469 144.976C158.861 144.88 158.285 144.832 157.741 144.832C156.205 144.832 154.941 145.152 153.949 145.792C152.957 146.432 152.397 147.424 152.269 148.768H146.797C146.893 147.168 147.277 145.84 147.949 144.784C148.621 143.728 149.469 142.88 150.493 142.24C151.549 141.6 152.733 141.152 154.045 140.896C155.357 140.64 156.701 140.512 158.077 140.512C159.293 140.512 160.493 140.64 161.677 140.896C162.861 141.152 163.917 141.568 164.845 142.144C165.805 142.72 166.573 143.472 167.149 144.4C167.725 145.296 168.013 146.4 168.013 147.712V160.48ZM162.541 153.568C161.709 154.112 160.685 154.448 159.469 154.576C158.253 154.672 157.037 154.832 155.821 155.056C155.245 155.152 154.685 155.296 154.141 155.488C153.597 155.648 153.117 155.888 152.701 156.208C152.285 156.496 151.949 156.896 151.693 157.408C151.469 157.888 151.357 158.48 151.357 159.184C151.357 159.792 151.533 160.304 151.885 160.72C152.237 161.136 152.653 161.472 153.133 161.728C153.645 161.952 154.189 162.112 154.765 162.208C155.373 162.304 155.917 162.352 156.397 162.352C157.005 162.352 157.661 162.272 158.365 162.112C159.069 161.952 159.725 161.68 160.333 161.296C160.973 160.912 161.501 160.432 161.917 159.856C162.333 159.248 162.541 158.512 162.541 157.648V153.568ZM174.861 141.184H180.045V144.832L180.141 144.928C180.973 143.552 182.061 142.48 183.405 141.712C184.749 140.912 186.237 140.512 187.869 140.512C190.589 140.512 192.733 141.216 194.301 142.624C195.869 144.032 196.653 146.144 196.653 148.96V166H191.181V150.4C191.117 148.448 190.701 147.04 189.933 146.176C189.165 145.28 187.965 144.832 186.333 144.832C185.405 144.832 184.573 145.008 183.837 145.36C183.101 145.68 182.477 146.144 181.965 146.752C181.453 147.328 181.053 148.016 180.765 148.816C180.477 149.616 180.333 150.464 180.333 151.36V166H174.861V141.184Z" fill="white"/>
</svg>
